<svg xmlns="http://www.w3.org/2000/svg" version="1.1" xmlns:xlink="http://www.w3.org/1999/xlink" xmlns:svgjs="http://svgjs.dev/svgjs" width="1000" height="1000" viewBox="0 0 1000 1000"><rect width="1000" height="1000" fill="#ffffff"></rect><g transform="matrix(0.7,0,0,0.7,149.5757575757575,417.9224752188552)"><svg viewBox="0 0 396 93" data-background-color="#ca3433" preserveAspectRatio="xMidYMid meet" height="234" width="1000" xmlns="http://www.w3.org/2000/svg" xmlns:xlink="http://www.w3.org/1999/xlink"><g id="tight-bounds" transform="matrix(1,0,0,1,0.24000000000003752,0.10079245815916238)"><svg viewBox="0 0 395.5199999999999 92.79841508368165" height="92.79841508368165" width="395.5199999999999"><g><svg viewBox="0 0 510.22277909988946 119.71041980193456" height="92.79841508368165" width="395.5199999999999"><g transform="matrix(1,0,0,1,114.70277909988948,16.544638337315128)"><svg viewBox="0 0 395.52 86.62114312730431" height="86.62114312730431" width="395.52"><g id="textblocktransform"><svg viewBox="0 0 395.52 86.62114312730431" height="86.62114312730431" width="395.52" id="textblock"><g><svg viewBox="0 0 395.52 46.719305534025736" height="46.719305534025736" width="395.52"><g transform="matrix(1,0,0,1,0,0)"><svg width="395.52" viewBox="1.25 -37.5 320.02 38.1" height="46.719305534025736" data-palette-color="#ffffff"><g class="wordmark-text-0" data-fill-palette-color="primary" id="text-0"><path d="M13.5-35.05Q16.95-35.05 19.4-34.08 21.85-33.1 24.15-31.05L24.15-31.05 21.55-28.15Q19.6-29.7 17.73-30.43 15.85-31.15 13.7-31.15L13.7-31.15Q11-31.15 9.25-29.9 7.5-28.65 7.5-26.25L7.5-26.25Q7.5-24.75 8.1-23.73 8.7-22.7 10.33-21.85 11.95-21 15.05-20.05L15.05-20.05Q18.3-19.05 20.45-17.9 22.6-16.75 23.93-14.73 25.25-12.7 25.25-9.6L25.25-9.6Q25.25-6.6 23.78-4.3 22.3-2 19.53-0.7 16.75 0.6 12.95 0.6L12.95 0.6Q5.8 0.6 1.25-3.85L1.25-3.85 3.85-6.75Q5.95-5.05 8.1-4.17 10.25-3.3 12.9-3.3L12.9-3.3Q16.1-3.3 18.2-4.88 20.3-6.45 20.3-9.45L20.3-9.45Q20.3-11.15 19.65-12.28 19-13.4 17.43-14.3 15.85-15.2 12.85-16.1L12.85-16.1Q7.55-17.7 5.1-19.95 2.65-22.2 2.65-26.05L2.65-26.05Q2.65-28.65 4.03-30.7 5.4-32.75 7.88-33.9 10.35-35.05 13.5-35.05L13.5-35.05ZM44.4-26.95Q48-26.95 50.02-24.8 52.05-22.65 52.05-18.9L52.05-18.9 52.05 0 47.45 0 47.45-18.25Q47.45-21.05 46.37-22.2 45.3-23.35 43.25-23.35L43.25-23.35Q41.2-23.35 39.6-22.15 38-20.95 36.6-18.75L36.6-18.75 36.6 0 32 0 32-36.9 36.6-37.4 36.6-22.7Q39.7-26.95 44.4-26.95L44.4-26.95ZM79.05-6.15Q79.05-4.55 79.59-3.78 80.15-3 81.25-2.6L81.25-2.6 80.2 0.6Q78.15 0.35 76.9-0.55 75.65-1.45 75.05-3.35L75.05-3.35Q72.4 0.6 67.2 0.6L67.2 0.6Q63.3 0.6 61.05-1.6 58.8-3.8 58.8-7.35L58.8-7.35Q58.8-11.55 61.82-13.8 64.84-16.05 70.4-16.05L70.4-16.05 74.45-16.05 74.45-18Q74.45-20.8 73.09-22 71.75-23.2 68.95-23.2L68.95-23.2Q66.05-23.2 61.84-21.8L61.84-21.8 60.7-25.15Q65.59-26.95 69.8-26.95L69.8-26.95Q74.45-26.95 76.75-24.68 79.05-22.4 79.05-18.2L79.05-18.2 79.05-6.15ZM68.25-2.85Q72.2-2.85 74.45-6.95L74.45-6.95 74.45-13 71-13Q63.7-13 63.7-7.6L63.7-7.6Q63.7-5.25 64.84-4.05 66-2.85 68.25-2.85L68.25-2.85ZM95.64-26.95Q98.34-26.95 100.49-26.2 102.64-25.45 104.59-23.95L104.59-23.95 102.64-21.05Q100.84-22.2 99.22-22.75 97.59-23.3 95.79-23.3L95.79-23.3Q93.54-23.3 92.24-22.38 90.94-21.45 90.94-19.85L90.94-19.85Q90.94-18.25 92.17-17.35 93.39-16.45 96.59-15.6L96.59-15.6Q100.99-14.5 103.17-12.6 105.34-10.7 105.34-7.4L105.34-7.4Q105.34-3.5 102.32-1.45 99.29 0.6 94.94 0.6L94.94 0.6Q88.94 0.6 84.99-2.85L84.99-2.85 87.44-5.65Q90.79-3.1 94.84-3.1L94.84-3.1Q97.44-3.1 98.97-4.17 100.49-5.25 100.49-7.1L100.49-7.1Q100.49-8.45 99.94-9.28 99.39-10.1 98.04-10.73 96.69-11.35 94.09-12.05L94.09-12.05Q89.89-13.15 88.02-15 86.14-16.85 86.14-19.7L86.14-19.7Q86.14-21.75 87.37-23.43 88.59-25.1 90.77-26.03 92.94-26.95 95.64-26.95L95.64-26.95ZM137.54-26.35L141.94-26.35 135.94 0 129.69 0 125.09-22.2 120.34 0 114.24 0 108.09-26.35 112.69-26.35 117.44-3.2 122.64-26.35 127.79-26.35 132.74-3.2 137.54-26.35ZM165.44-6.15Q165.44-4.55 165.99-3.78 166.54-3 167.64-2.6L167.64-2.6 166.59 0.6Q164.54 0.35 163.29-0.55 162.04-1.45 161.44-3.35L161.44-3.35Q158.79 0.6 153.59 0.6L153.59 0.6Q149.69 0.6 147.44-1.6 145.19-3.8 145.19-7.35L145.19-7.35Q145.19-11.55 148.21-13.8 151.24-16.05 156.79-16.05L156.79-16.05 160.84-16.05 160.84-18Q160.84-20.8 159.49-22 158.14-23.2 155.34-23.2L155.34-23.2Q152.44-23.2 148.24-21.8L148.24-21.8 147.09-25.15Q151.99-26.95 156.19-26.95L156.19-26.95Q160.84-26.95 163.14-24.68 165.44-22.4 165.44-18.2L165.44-18.2 165.44-6.15ZM154.64-2.85Q158.59-2.85 160.84-6.95L160.84-6.95 160.84-13 157.39-13Q150.09-13 150.09-7.6L150.09-7.6Q150.09-5.25 151.24-4.05 152.39-2.85 154.64-2.85L154.64-2.85ZM186.44-4.25L188.19-1.2Q185.58 0.6 182.28 0.6L182.28 0.6Q178.94 0.6 177.06-1.33 175.19-3.25 175.19-6.9L175.19-6.9 175.19-22.8 170.58-22.8 170.58-26.35 175.19-26.35 175.19-32.3 179.78-32.85 179.78-26.35 186.03-26.35 185.53-22.8 179.78-22.8 179.78-7.1Q179.78-5.05 180.51-4.13 181.23-3.2 182.94-3.2L182.94-3.2Q184.48-3.2 186.44-4.25L186.44-4.25ZM210.68-6.15Q210.68-4.55 211.23-3.78 211.78-3 212.88-2.6L212.88-2.6 211.83 0.6Q209.78 0.35 208.53-0.55 207.28-1.45 206.68-3.35L206.68-3.35Q204.03 0.6 198.83 0.6L198.83 0.6Q194.93 0.6 192.68-1.6 190.43-3.8 190.43-7.35L190.43-7.35Q190.43-11.55 193.46-13.8 196.48-16.05 202.03-16.05L202.03-16.05 206.08-16.05 206.08-18Q206.08-20.8 204.73-22 203.38-23.2 200.58-23.2L200.58-23.2Q197.68-23.2 193.48-21.8L193.48-21.8 192.33-25.15Q197.23-26.95 201.43-26.95L201.43-26.95Q206.08-26.95 208.38-24.68 210.68-22.4 210.68-18.2L210.68-18.2 210.68-6.15ZM199.88-2.85Q203.83-2.85 206.08-6.95L206.08-6.95 206.08-13 202.63-13Q195.33-13 195.33-7.6L195.33-7.6Q195.33-5.25 196.48-4.05 197.63-2.85 199.88-2.85L199.88-2.85Z" fill="#000000" data-fill-palette-color="primary"></path><path d="M261.83-34.45L266.18-34.45 259.18 0 253.08 0 246.73-28.85 240.33 0 234.38 0 227.38-34.45 232.03-34.45 237.58-4.15 244.23-34.45 249.28-34.45 256.08-4.15 261.83-34.45ZM292.08-13.95Q292.08-12.8 291.98-11.6L291.98-11.6 275.18-11.6Q275.48-7.25 277.38-5.2 279.28-3.15 282.28-3.15L282.28-3.15Q284.18-3.15 285.78-3.7 287.38-4.25 289.13-5.45L289.13-5.45 291.13-2.7Q286.93 0.6 281.93 0.6L281.93 0.6Q276.43 0.6 273.35-3 270.28-6.6 270.28-12.9L270.28-12.9Q270.28-17 271.6-20.18 272.93-23.35 275.4-25.15 277.88-26.95 281.23-26.95L281.23-26.95Q286.48-26.95 289.28-23.5 292.08-20.05 292.08-13.95L292.08-13.95ZM287.53-15L287.53-15.3Q287.53-19.2 285.98-21.25 284.43-23.3 281.33-23.3L281.33-23.3Q275.68-23.3 275.18-15L275.18-15 287.53-15ZM311.47-26.95Q315.97-26.95 318.62-23.33 321.27-19.7 321.27-13.2L321.27-13.2Q321.27-9.1 320.02-5.98 318.77-2.85 316.42-1.13 314.07 0.6 310.92 0.6L310.92 0.6Q306.77 0.6 303.92-2.9L303.92-2.9 303.47 0 299.42 0 299.42-36.95 304.02-37.5 304.02-23.05Q306.87-26.95 311.47-26.95L311.47-26.95ZM309.82-3.05Q312.87-3.05 314.6-5.53 316.32-8 316.32-13.2L316.32-13.2Q316.32-18.55 314.72-20.93 313.12-23.3 310.17-23.3L310.17-23.3Q306.67-23.3 304.02-19.2L304.02-19.2 304.02-6.6Q305.07-4.95 306.6-4 308.12-3.05 309.82-3.05L309.82-3.05Z" fill="#000000" data-fill-palette-color="primary"></path></g></svg></g></svg></g><g transform="matrix(1,0,0,1,0,57.748612307276396)"><svg viewBox="0 0 216.92776734720348 28.872530820027908" height="28.872530820027908" width="216.92776734720348"><g transform="matrix(1,0,0,1,0,0)"><svg width="216.92776734720348" viewBox="0.35 -38.85 367.35999999999996 48.900000000000006" height="28.872530820027908" data-palette-color="#ffffff"><path d="M41.3-36.1L47-36.1Q45.2-31.35 43.18-26.13 41.15-20.9 39.18-15.85 37.2-10.8 35.45-6.25 33.7-1.7 32.5 1.6L32.5 1.6 24.4-18.65Q24.25-19.05 24.15-19.25 24.05-19.45 23.95-19.85L23.95-19.85Q23.95-19.65 23.9-19.48 23.85-19.3 23.8-19.1L23.8-19.1Q23.75-18.9 23.7-18.7L23.7-18.7Q22-14.8 20.35-11.05L20.35-11.05Q19.65-9.45 18.9-7.75 18.15-6.05 17.45-4.38 16.75-2.7 16.07-1.15 15.4 0.4 14.85 1.65L14.85 1.65Q11.25-7.8 7.6-17.2 3.95-26.6 0.35-36.1L0.35-36.1 6.5-36.1Q7.7-32.8 8.97-29.45 10.25-26.1 11.38-23 12.5-19.9 13.4-17.25 14.3-14.6 14.8-12.75L14.8-12.75 15.2-11Q15.25-11.25 15.45-11.83 15.65-12.4 15.75-12.65L15.75-12.65Q15.8-12.85 16.1-13.55 16.4-14.25 16.8-15.23 17.2-16.2 17.7-17.35 18.2-18.5 18.7-19.7L18.7-19.7Q19.9-22.45 21.35-25.8L21.35-25.8Q20.5-28.15 19.85-30.2L19.85-30.2Q19.25-31.95 18.73-33.65 18.2-35.35 17.95-36.1L17.95-36.1 23.2-36.1Q25.35-30.45 27.2-25.65L27.2-25.65Q27.95-23.6 28.73-21.55 29.5-19.5 30.18-17.75 30.85-16 31.35-14.68 31.85-13.35 32.05-12.75L32.05-12.75Q32.2-12.3 32.27-11.88 32.35-11.45 32.45-11L32.45-11Q32.55-11.45 32.63-11.9 32.7-12.35 32.8-12.75L32.8-12.75Q33.25-14.7 34.2-17.4 35.15-20.1 36.33-23.2 37.5-26.3 38.8-29.63 40.1-32.95 41.3-36.1L41.3-36.1ZM60.3-5.55L63.5-2.45Q62-1.1 59.85-0.3 57.7 0.5 55.45 0.5L55.45 0.5Q53.15 0.5 51.12-0.38 49.1-1.25 47.6-2.73 46.1-4.2 45.22-6.2 44.35-8.2 44.35-10.45L44.35-10.45Q44.35-12.7 45.22-14.7 46.1-16.7 47.6-18.2 49.1-19.7 51.07-20.58 53.05-21.45 55.3-21.45L55.3-21.45Q58.85-21.45 61.47-19.33 64.1-17.2 65.25-13.75L65.25-13.75Q63.7-13.2 61.7-12.4 59.7-11.6 57.55-10.73 55.4-9.85 53.25-9 51.1-8.15 49.25-7.45L49.25-7.45Q50.1-5.75 51.72-4.73 53.35-3.7 55.35-3.7L55.35-3.7Q56.7-3.7 58.07-4.2 59.45-4.7 60.3-5.55L60.3-5.55ZM59.9-14.75L59.9-14.75Q59.3-16 58-16.63 56.7-17.25 55.35-17.25L55.35-17.25Q53.9-17.25 52.67-16.7 51.45-16.15 50.55-15.23 49.65-14.3 49.12-13.1 48.6-11.9 48.6-10.65L48.6-10.65Q48.6-10.4 48.62-10.3 48.65-10.2 48.65-10.15L48.65-10.15Q49.95-10.65 51.47-11.28 53-11.9 54.5-12.53 56-13.15 57.4-13.73 58.8-14.3 59.9-14.75ZM91.3-10.4L91.3-10.4Q91.3-8.05 90.5-6.05 89.7-4.05 88.25-2.6 86.8-1.15 84.77-0.33 82.75 0.5 80.35 0.5L80.35 0.5Q79.1 0.5 77.97 0.23 76.85-0.05 75.9-0.53 74.95-1 74.25-1.58 73.55-2.15 73.2-2.75L73.2-2.75Q73.2-2.5 73.22-2.23 73.25-1.95 73.25-1.7L73.25-1.7 73.25 0 68.95 0 68.95-38.85 73.25-38.85 73.25-17.85Q73.65-18.45 74.32-19.07 75-19.7 75.92-20.23 76.85-20.75 78-21.1 79.15-21.45 80.55-21.45L80.55-21.45Q82.95-21.45 84.92-20.68 86.9-19.9 88.32-18.48 89.75-17.05 90.52-15 91.3-12.95 91.3-10.4ZM86.65-10.5L86.65-10.5Q86.65-11.95 86.2-13.18 85.75-14.4 84.9-15.3 84.05-16.2 82.85-16.73 81.65-17.25 80.15-17.25L80.15-17.25Q78.65-17.25 77.37-16.73 76.1-16.2 75.2-15.3 74.3-14.4 73.77-13.18 73.25-11.95 73.25-10.5L73.25-10.5Q73.25-9.05 73.77-7.8 74.3-6.55 75.2-5.65 76.1-4.75 77.37-4.23 78.65-3.7 80.15-3.7L80.15-3.7Q81.65-3.7 82.85-4.23 84.05-4.75 84.9-5.68 85.75-6.6 86.2-7.83 86.65-9.05 86.65-10.5ZM103.89 0L103.89-36.25 112.99-36.25Q118.49-36.25 122.29-34.6 126.09-32.95 128.47-30.28 130.84-27.6 131.92-24.28 132.99-20.95 132.99-17.65L132.99-17.65Q132.99-13.6 131.54-10.33 130.09-7.05 127.59-4.75 125.09-2.45 121.79-1.23 118.49 0 114.79 0L114.79 0 103.89 0ZM109.34-5.2L113.99-5.2Q116.89-5.2 119.37-6.05 121.84-6.9 123.67-8.53 125.49-10.15 126.52-12.53 127.54-14.9 127.54-18L127.54-18Q127.54-21.3 126.39-23.75 125.24-26.2 123.39-27.83 121.54-29.45 119.22-30.23 116.89-31 114.49-31L114.49-31 109.34-31 109.34-5.2ZM151.79-5.55L154.99-2.45Q153.49-1.1 151.34-0.3 149.19 0.5 146.94 0.5L146.94 0.5Q144.64 0.5 142.61-0.38 140.59-1.25 139.09-2.73 137.59-4.2 136.71-6.2 135.84-8.2 135.84-10.45L135.84-10.45Q135.84-12.7 136.71-14.7 137.59-16.7 139.09-18.2 140.59-19.7 142.56-20.58 144.54-21.45 146.79-21.45L146.79-21.45Q150.34-21.45 152.96-19.33 155.59-17.2 156.74-13.75L156.74-13.75Q155.19-13.2 153.19-12.4 151.19-11.6 149.04-10.73 146.89-9.85 144.74-9 142.59-8.15 140.74-7.45L140.74-7.45Q141.59-5.75 143.21-4.73 144.84-3.7 146.84-3.7L146.84-3.7Q148.19-3.7 149.56-4.2 150.94-4.7 151.79-5.55L151.79-5.55ZM151.39-14.75L151.39-14.75Q150.79-16 149.49-16.63 148.19-17.25 146.84-17.25L146.84-17.25Q145.39-17.25 144.16-16.7 142.94-16.15 142.04-15.23 141.14-14.3 140.61-13.1 140.09-11.9 140.09-10.65L140.09-10.65Q140.09-10.4 140.11-10.3 140.14-10.2 140.14-10.15L140.14-10.15Q141.44-10.65 142.96-11.28 144.49-11.9 145.99-12.53 147.49-13.15 148.89-13.73 150.29-14.3 151.39-14.75ZM168.29 1.25L168.29 1.25Q165.34-4.35 162.76-9.83 160.19-15.3 157.34-20.9L157.34-20.9 161.99-20.9Q163.79-17.35 164.86-15.1 165.94-12.85 166.59-11.35 167.24-9.85 167.59-8.83 167.94-7.8 168.29-6.75L168.29-6.75Q168.69-7.8 169.06-8.83 169.44-9.85 170.06-11.35 170.69-12.85 171.76-15.1 172.84-17.35 174.64-20.9L174.64-20.9 179.29-20.9Q176.44-15.3 173.79-9.83 171.14-4.35 168.29 1.25ZM196.13-5.55L199.33-2.45Q197.83-1.1 195.68-0.3 193.53 0.5 191.28 0.5L191.28 0.5Q188.98 0.5 186.96-0.38 184.93-1.25 183.43-2.73 181.93-4.2 181.06-6.2 180.18-8.2 180.18-10.45L180.18-10.45Q180.18-12.7 181.06-14.7 181.93-16.7 183.43-18.2 184.93-19.7 186.91-20.58 188.88-21.45 191.13-21.45L191.13-21.45Q194.68-21.45 197.31-19.33 199.93-17.2 201.08-13.75L201.08-13.75Q199.53-13.2 197.53-12.4 195.53-11.6 193.38-10.73 191.23-9.85 189.08-9 186.93-8.15 185.08-7.45L185.08-7.45Q185.93-5.75 187.56-4.73 189.18-3.7 191.18-3.7L191.18-3.7Q192.53-3.7 193.91-4.2 195.28-4.7 196.13-5.55L196.13-5.55ZM195.73-14.75L195.73-14.75Q195.13-16 193.83-16.63 192.53-17.25 191.18-17.25L191.18-17.25Q189.73-17.25 188.51-16.7 187.28-16.15 186.38-15.23 185.48-14.3 184.96-13.1 184.43-11.9 184.43-10.65L184.43-10.65Q184.43-10.4 184.46-10.3 184.48-10.2 184.48-10.15L184.48-10.15Q185.78-10.65 187.31-11.28 188.83-11.9 190.33-12.53 191.83-13.15 193.23-13.73 194.63-14.3 195.73-14.75ZM209.08-38.85L209.08 0 204.83 0 204.83-38.85 209.08-38.85ZM213.68-10.5L213.68-10.5Q213.68-12.75 214.55-14.75 215.43-16.75 216.93-18.23 218.43-19.7 220.45-20.58 222.48-21.45 224.83-21.45L224.83-21.45Q227.18-21.45 229.2-20.58 231.23-19.7 232.7-18.23 234.18-16.75 235-14.75 235.83-12.75 235.83-10.5L235.83-10.5Q235.83-8.25 235-6.25 234.18-4.25 232.7-2.75 231.23-1.25 229.2-0.38 227.18 0.5 224.78 0.5L224.78 0.5Q222.48 0.5 220.45-0.3 218.43-1.1 216.93-2.55 215.43-4 214.55-6.03 213.68-8.05 213.68-10.5ZM217.93-10.45L217.93-10.45Q217.93-9.05 218.45-7.83 218.98-6.6 219.9-5.68 220.83-4.75 222.05-4.23 223.28-3.7 224.68-3.7L224.68-3.7Q226.08-3.7 227.33-4.23 228.58-4.75 229.5-5.68 230.43-6.6 230.98-7.83 231.53-9.05 231.53-10.45L231.53-10.45Q231.53-11.85 230.98-13.1 230.43-14.35 229.5-15.28 228.58-16.2 227.33-16.73 226.08-17.25 224.68-17.25L224.68-17.25Q223.28-17.25 222.05-16.73 220.83-16.2 219.9-15.28 218.98-14.35 218.45-13.1 217.93-11.85 217.93-10.45ZM258.08-10.5L258.08-10.5Q258.08-11.95 257.63-13.18 257.18-14.4 256.33-15.3 255.48-16.2 254.28-16.73 253.08-17.25 251.58-17.25L251.58-17.25Q250.08-17.25 248.8-16.73 247.53-16.2 246.63-15.3 245.73-14.4 245.2-13.18 244.68-11.95 244.68-10.5L244.68-10.5Q244.68-9.05 245.2-7.8 245.73-6.55 246.63-5.65 247.53-4.75 248.8-4.23 250.08-3.7 251.58-3.7L251.58-3.7Q253.08-3.7 254.28-4.23 255.48-4.75 256.33-5.68 257.18-6.6 257.63-7.83 258.08-9.05 258.08-10.5ZM262.73-10.4L262.73-10.4Q262.73-8.05 261.93-6.05 261.13-4.05 259.68-2.6 258.23-1.15 256.2-0.33 254.18 0.5 251.78 0.5L251.78 0.5Q250.53 0.5 249.4 0.23 248.28-0.05 247.33-0.53 246.38-1 245.68-1.58 244.98-2.15 244.63-2.75L244.63-2.75Q244.63-2.5 244.65-2.23 244.68-1.95 244.68-1.7L244.68-1.7 244.68 10.05 240.38 10.05 240.38-20.9 244.53-20.9Q244.53-20.3 244.6-19.43 244.68-18.55 244.68-17.85L244.68-17.85Q245.08-18.45 245.75-19.07 246.43-19.7 247.35-20.23 248.28-20.75 249.43-21.1 250.58-21.45 251.98-21.45L251.98-21.45Q254.38-21.45 256.35-20.68 258.33-19.9 259.75-18.48 261.18-17.05 261.95-15 262.73-12.95 262.73-10.4ZM267.37 0L267.37-20.9 271.12-20.9Q271.22-19.35 271.3-18.07 271.37-16.8 271.47-15.55L271.47-15.55Q272.62-18.25 274.5-19.83 276.37-21.4 279.52-21.45L279.52-21.45Q282.57-21.45 284.42-19.9 286.27-18.35 286.57-15.85L286.57-15.85Q287.82-18.4 289.65-19.9 291.47-21.4 294.57-21.45L294.57-21.45Q297.82-21.45 299.7-19.7 301.57-17.95 301.67-15.2L301.67-15.2 301.67 0 297.37 0 297.37-13.25Q297.27-14.85 296.3-15.98 295.32-17.1 293.12-17.2L293.12-17.2Q290.12-17.2 288.42-15.28 286.72-13.35 286.62-10.35L286.62-10.35 286.62 0 282.37 0 282.37-13.25Q282.27-14.85 281.25-15.98 280.22-17.1 278.12-17.2L278.12-17.2Q276.62-17.2 275.42-16.68 274.22-16.15 273.37-15.25 272.52-14.35 272.07-13.1 271.62-11.85 271.62-10.35L271.62-10.35 271.62 0 267.37 0ZM321.97-5.55L325.17-2.45Q323.67-1.1 321.52-0.3 319.37 0.5 317.12 0.5L317.12 0.5Q314.82 0.5 312.8-0.38 310.77-1.25 309.27-2.73 307.77-4.2 306.9-6.2 306.02-8.2 306.02-10.45L306.02-10.45Q306.02-12.7 306.9-14.7 307.77-16.7 309.27-18.2 310.77-19.7 312.75-20.58 314.72-21.45 316.97-21.45L316.97-21.45Q320.52-21.45 323.15-19.33 325.77-17.2 326.92-13.75L326.92-13.75Q325.37-13.2 323.37-12.4 321.37-11.6 319.22-10.73 317.07-9.85 314.92-9 312.77-8.15 310.92-7.45L310.92-7.45Q311.77-5.75 313.4-4.73 315.02-3.7 317.02-3.7L317.02-3.7Q318.37-3.7 319.75-4.2 321.12-4.7 321.97-5.55L321.97-5.55ZM321.57-14.75L321.57-14.75Q320.97-16 319.67-16.63 318.37-17.25 317.02-17.25L317.02-17.25Q315.57-17.25 314.35-16.7 313.12-16.15 312.22-15.23 311.32-14.3 310.8-13.1 310.27-11.9 310.27-10.65L310.27-10.65Q310.27-10.4 310.3-10.3 310.32-10.2 310.32-10.15L310.32-10.15Q311.62-10.65 313.15-11.28 314.67-11.9 316.17-12.53 317.67-13.15 319.07-13.73 320.47-14.3 321.57-14.75ZM330.62 0L330.62-20.9 334.37-20.9Q334.47-19.35 334.54-18.07 334.62-16.8 334.72-15.55L334.72-15.55Q335.87-18.25 337.99-19.85 340.12-21.45 343.22-21.45L343.22-21.45Q346.37-21.45 348.27-19.7 350.17-17.95 350.27-15.2L350.27-15.2 350.27 0 345.97 0 345.97-13.25Q345.87-14.85 344.87-15.98 343.87-17.1 341.72-17.2L341.72-17.2Q340.22-17.2 338.97-16.68 337.72-16.15 336.82-15.25 335.92-14.35 335.39-13.1 334.87-11.85 334.87-10.35L334.87-10.35 334.87 0 330.62 0ZM357.87-20.85L357.87-30.1 362.12-30.1 362.12-20.85 367.71-20.85 367.71-17.05 362.12-17.05 362.12 0 357.87 0 357.87-17.05 354.12-17.05 354.12-20.85 357.87-20.85Z" opacity="1" transform="matrix(1,0,0,1,0,0)" fill="#000000" class="slogan-text-1" data-fill-palette-color="secondary" id="text-1"></path></svg></g></svg></g></svg></g></svg></g><g><svg viewBox="0 0 103.67347232663883 119.71041980193456" height="119.71041980193456" width="103.67347232663883"><g><svg xmlns:x="http://ns.adobe.com/Extensibility/1.0/" xmlns:i="http://ns.adobe.com/AdobeIllustrator/10.0/" xmlns:graph="http://ns.adobe.com/Graphs/1.0/" xmlns="http://www.w3.org/2000/svg" xmlns:xlink="http://www.w3.org/1999/xlink" version="1.0" x="0" y="0" viewBox="12.13 6.272 75.74000000000001 87.45599999999999" enable-background="new 0 0 100 100" xml:space="preserve" height="119.71041980193456" width="103.67347232663883" class="icon-icon-0" data-fill-palette-color="accent" id="icon-0"><g fill="#ffffff" data-fill-palette-color="accent"><path d="M50 6.272L12.13 28.137v43.728L50 93.728l37.87-21.863V28.137L50 6.272zM78.438 32.691L51 16.85V9.159L84.898 28.73 78.438 32.691zM50 59.352l-7.21-4.162v-8.326L50 42.701l7.209 4.162v8.326L50 59.352zM49 40.968l-6.67 3.851-7.902-4.675L49 31.731V40.968zM40.79 46.232v8.625l-8 4.451v-17.81L40.79 46.232zM41.498 56.753L49 61.083v9.238l-15.65-9.035L41.498 56.753zM51 61.083l7.502-4.331 8.148 4.534L51 70.321V61.083zM59.209 54.855v-8.73l0.314 0.513 7.687-4.714v17.383L59.209 54.855zM58.479 44.934l0.335 0.547L51 40.969v-9.237l14.94 8.625L58.479 44.934zM49 29.422l-16.547 9.553-8.779-5.194L49 19.159V29.422zM30.79 40.315v20.107l-8 4.451V35.582L30.79 40.315zM31.313 62.42L49 72.63v8.212L24.071 66.449 31.313 62.42zM51 72.63l17.687-10.211 7.243 4.03L51 80.842V72.63zM69.21 60.421V40.698l8-4.907v29.081L69.21 60.421zM67.879 39.168L51 29.423V19.159l25.5 14.722L67.879 39.168zM49 16.849L21.699 32.612l-6.579-3.893L49 9.159V16.849zM20.79 34.398v31.588l-6.66 3.705V30.458L20.79 34.398zM22.034 67.583L49 83.15v7.691L15.251 71.357 22.034 67.583zM51 83.15l26.966-15.568 6.783 3.775L51 90.842V83.15zM79.21 65.985V34.564l6.66-4.085v39.212L79.21 65.985z" fill="#000000" data-fill-palette-color="accent"></path></g></svg><g></g></g></svg></g></svg></g><defs></defs></svg><rect width="395.5199999999999" height="92.79841508368165" fill="none" stroke="none" visibility="hidden"></rect></g></svg></g></svg>